<svg fill="none" xmlns="http://www.w3.org/2000/svg" viewBox="0 0 1247 322"><g clip-path="url(#a)"><path d="m782.577.271-32.256 31.165V170.33h32.256V.271Zm45.255 3.305a19.148 19.148 0 0 0-14.055 6.006 19.544 19.544 0 0 0-5.762 14.054 19.663 19.663 0 0 0 5.762 13.984 19.682 19.682 0 0 0 13.984 5.763 19.077 19.077 0 0 0 14.126-5.692 19.321 19.321 0 0 0 4.481-21.708 19.321 19.321 0 0 0-4.481-6.401 18.662 18.662 0 0 0-14.055-6.006ZM248.478 5.264V170.4h34.683v-46.31h37.947a58.358 58.358 0 0 0 42.371-17.566 56.652 56.652 0 0 0 17.04-41.85 55.871 55.871 0 0 0-17.04-41.602 58.96 58.96 0 0 0-42.549-17.81h-72.452Zm417.593 9.062v33.836h-21.47v31.414h54.282l-32.812 32.605v18.55c0 17.286 5.024 28.463 14.054 35.139 9.159 6.676 24.827 8.761 47.009 6.255v-29.727l-5.165.314c-3.434.304-6.882.433-10.329.385a15.6 15.6 0 0 1-9.524-3.512 14.582 14.582 0 0 1-3.056-10.542V79.576h28.109V48.162H699.06V14.326h-32.989Zm364.749 0V170.33h33.02v-67.673c0-10.365 1.41-17.04 6.43-22.204a26.587 26.587 0 0 1 9.18-5.993 26.5 26.5 0 0 1 10.81-1.772c3.31-.152 6.61.37 9.71 1.536 3.1 1.166 5.93 2.951 8.31 5.246a25.236 25.236 0 0 1 5.37 8.797 25.127 25.127 0 0 1 1.38 10.209v72.766h32.26v-76.77c0-16.186-4.5-28.86-13.5-38.018a44.841 44.841 0 0 0-15.42-10.467 44.864 44.864 0 0 0-18.34-3.303c-17.01 0-28.35 5.374-36.19 17.04V14.325h-33.02Zm155.08 0v33.836h-21.47v31.414h21.47v51.119c0 17.182 5.06 28.358 14.06 35.14 8.99 6.781 24.84 8.749 47.01 6.254v-29.833l-5.17.314c-3.43.306-6.88.436-10.33.391a15.634 15.634 0 0 1-9.52-3.518 14.59 14.59 0 0 1-3.05-10.536v-49.33h28.1V48.161h-28.1V14.326h-33ZM283.161 38.289h37.876a24.208 24.208 0 0 1 18.165 7.522 25.383 25.383 0 0 1 6.675 18.864 26.673 26.673 0 0 1-6.675 19.183 23.965 23.965 0 0 1-18.165 7.238l-37.876.284V38.29Zm167.187 3.376a66.334 66.334 0 0 0-63.226 65.949 66.056 66.056 0 0 0 113.071 47.009 63.99 63.99 0 0 0 19.255-47.009 63.24 63.24 0 0 0-19.255-46.765 66.331 66.331 0 0 0-49.845-19.184Zm133.148.947a53.584 53.584 0 0 0-34.044 10.75 34.785 34.785 0 0 0-13.492 29.022 32.218 32.218 0 0 0 6.498 20.522 40.129 40.129 0 0 0 16.269 11.733 158.12 158.12 0 0 0 19.012 6.254 84.113 84.113 0 0 1 15.986 5.834c4.532 2.003 6.781 4.67 6.781 8.007 0 7.168-5.691 10.696-17.075 10.578-12.743.024-20.943-5.401-24.597-16.269l-28.109 15.778c9.205 19.852 27.022 28.636 52.706 28.636 14.371 0 25.961-2.105 35.447-9.133a34.494 34.494 0 0 0 14.511-29.761 33.097 33.097 0 0 0-6.746-21.085 35.129 35.129 0 0 0-16.021-12.011 140.887 140.887 0 0 0-18.97-6.012 105.4 105.4 0 0 1-16.27-5.478c-4.357-2.179-6.497-4.919-6.497-8.257a8.683 8.683 0 0 1 4.075-7.593 18.936 18.936 0 0 1 10.536-2.742 20.587 20.587 0 0 1 19.995 12.758l27.511-15.003a49.47 49.47 0 0 0-19.746-19.503 55.904 55.904 0 0 0-27.76-7.025Zm346.124.072a58.99 58.99 0 0 0-44.267 18.763 63.026 63.026 0 0 0-17.815 45.391 63.806 63.806 0 0 0 17.78 45.676 60.325 60.325 0 0 0 44.971 18.094c17.181 0 30.077-5.901 39.564-18.585v13.492a29.304 29.304 0 0 1-8.748 22.767c-5.833 5.34-14.058 7.03-24.212 7.03-15.495 0-27.052-5.656-33.025-16.512l-26.386 16.512a52.919 52.919 0 0 0 22.838 21.962 81.162 81.162 0 0 0 36.259 7.764 69.782 69.782 0 0 0 45.676-15.286c12.825-10.155 19.145-24.806 19.145-44.131l-.35-119.111h-31.375v14.866c-9.486-12.65-22.874-18.692-40.055-18.692ZM811.319 54.766V170.33h32.996V54.766h-32.996Zm123.365 18.029a33.871 33.871 0 0 1 25.011 9.766 32.008 32.008 0 0 1 10.016 24.277 33.075 33.075 0 0 1-10.016 24.598 34.25 34.25 0 0 1-25.011 9.553 35.131 35.131 0 0 1-25.267-9.553 33.529 33.529 0 0 1-9.731-24.598 32.442 32.442 0 0 1 9.731-24.277 34.794 34.794 0 0 1 25.267-9.766Zm-481.523.503a35.135 35.135 0 0 1 24.265 9.72 33.59 33.59 0 0 1 9.767 24.596 33.586 33.586 0 0 1-9.767 24.769 35.135 35.135 0 0 1-48.525 0 34.061 34.061 0 0 1-9.488-24.769 34.052 34.052 0 0 1 9.488-24.597 35.136 35.136 0 0 1 24.26-9.719Zm380.215 187.2c-3.748 0-7.041.882-9.885 2.647-2.845 1.765-5.04 4.294-6.592 7.587-1.553 3.293-2.328 7.109-2.328 11.449v4.483c0 6.635 1.657 11.931 4.987 15.873 3.324 3.957 7.748 5.929 13.261 5.929 5.088 0 9.162-1.338 12.224-4.022 3.075-2.684 4.891-6.494 5.479-11.437l-6.166-.012c-.597 3.855-1.814 6.55-3.642 8.097-1.826 1.552-4.448 2.327-7.871 2.327-3.803 0-6.762-1.493-8.879-4.489-2.113-2.99-3.18-7.024-3.18-12.1v-4.519c0-5.371 1.12-9.512 3.352-12.42 2.226-2.914 5.318-4.359 9.252-4.359 3.211 0 5.703.828 7.48 2.505 1.795 1.677 2.952 4.375 3.482 8.108h6.184c-.485-4.897-2.225-8.724-5.224-11.496-2.996-2.765-6.976-4.151-11.934-4.151Zm-335.398.615v46.695h6.189v-35.98l23.508 35.98h6.189v-46.695h-6.13v36.147l-23.567-36.147h-6.189Zm42.969 0v5.041h14.973v41.654h6.13v-41.654h15.008v-5.041h-36.111Zm39.7 0v5.041h14.973v41.654h6.13v-41.654h15.008v-5.041h-36.111Zm58.007 0v46.701h12.924c4.191-.054 7.862-.953 11.016-2.73 3.154-1.777 5.584-4.317 7.279-7.635 1.701-3.317 2.553-7.167 2.553-11.573v-2.985c-.015-4.297-.881-8.104-2.583-11.419-1.701-3.311-4.105-5.866-7.225-7.658-3.127-1.801-6.722-2.701-10.786-2.701h-13.178Zm77.938 0v5.041h14.978v41.654h6.124v-41.654h15.008v-5.041h-36.11Zm-21.553.006-17.828 46.689h6.35l4.394-12.218h19.557l4.466 12.218h6.313l-17.863-46.689h-5.389Zm75.36 0-17.827 46.689h6.349l4.395-12.218h19.563l4.453 12.218h6.32l-17.863-46.689h-5.39Zm-125.585 5.029h7.184c4.582.048 8.109 1.539 10.596 4.477 2.49 2.951 3.737 7.072 3.737 12.373l.006 2.736c0 5.456-1.321 9.668-3.962 12.616-2.635 2.95-6.336 4.424-11.076 4.424h-6.485v-36.626Zm52.914 2.57 7.954 21.837h-15.873l7.919-21.837Zm75.372 0 7.948 21.837h-15.872l7.924-21.837Zm-350.779 3.743c-2.523 0-4.84.467-6.941 1.41-2.108.949-3.777 2.219-5.005 3.838-1.231 1.61-1.842 3.288-1.842 5.016h5.964c0-1.51.716-2.809 2.15-3.873 1.435-1.073 3.208-1.611 5.325-1.611 2.417 0 4.247.617 5.49 1.842 1.237 1.231 1.854 2.877 1.854 4.963v2.719h-5.769c-4.985 0-8.852 1.001-11.596 3.003-2.748 1.995-4.123 4.798-4.123 8.41 0 2.969 1.095 5.424 3.287 7.362 2.193 1.938 5.002 2.902 8.423 2.902 3.829 0 7.122-1.44 9.879-4.3.211 1.747.491 2.956.829 3.648h6.225v-.509c-.819-1.88-1.226-4.406-1.226-7.587V283.72c-.085-3.505-1.262-6.263-3.53-8.268-2.263-1.995-5.394-2.991-9.394-2.991Zm489.217 0c-4.33 0-7.762 1.5-10.3 4.49l-.166-3.85-5.626.012v34.695h5.928v-25.337c1.435-3.306 4.1-4.969 7.99-4.969 4.934 0 7.409 2.529 7.409 7.569v22.737h5.959v-23.027c.236-2.226 1.082-3.991 2.535-5.319 1.455-1.31 3.285-1.966 5.49-1.966 2.666 0 4.578.617 5.715 1.836 1.126 1.237 1.706 3.096 1.706 5.567v22.903h5.935V284.55c-.137-8.048-3.997-12.089-11.615-12.089-2.523 0-4.71.515-6.544 1.54-1.853 1.025-3.352 2.369-4.507 4.046-1.753-3.727-5.057-5.586-9.909-5.586Zm91.852 0c-2.53 0-4.849.467-6.944 1.41-2.102.949-3.774 2.219-5.005 3.838-1.231 1.61-1.836 3.288-1.836 5.016h5.97c0-1.51.71-2.809 2.144-3.873 1.441-1.073 3.221-1.611 5.321-1.611 2.43 0 4.24.617 5.49 1.842 1.24 1.231 1.86 2.877 1.86 4.963v2.719h-5.77c-4.983 0-8.844 1.001-11.586 3.003-2.747 1.995-4.122 4.798-4.122 8.41 0 2.969 1.101 5.424 3.287 7.362 2.193 1.938 4.999 2.902 8.421 2.902 3.83 0 7.12-1.44 9.87-4.3.21 1.747.5 2.956.83 3.648h6.22v-.509c-.82-1.88-1.23-4.406-1.23-7.587V283.72c-.08-3.505-1.26-6.263-3.53-8.268-2.26-1.995-5.4-2.991-9.39-2.991Zm-542.648.006c-4.276 0-7.744 1.661-10.394 4.993l-.19-4.359-5.609.012v34.695h5.929v-24.727c.816-1.665 1.953-3.014 3.405-4.039 1.453-1.025 3.142-1.54 5.064-1.54 2.375 0 4.12.602 5.242 1.8 1.119 1.198 1.696 3.045 1.717 5.544v22.962h5.929v-22.933c-.064-8.275-3.761-12.408-11.093-12.408Zm508.08 0c-4.294 0-7.657 1.494-10.068 4.484l-.296-3.85h-5.42v48.033h5.935v-16.702c2.417 2.672 5.729 4.004 9.944 4.004 4.115 0 7.394-1.609 9.808-4.845 2.411-3.223 3.613-7.481 3.613-12.763h.012v-.545c.012-5.583-1.202-9.954-3.631-13.101-2.423-3.139-5.727-4.715-9.897-4.715Zm72.978 0c-4.27 0-7.74 1.661-10.39 4.993l-.19-4.359-5.6.012v34.695h5.93v-24.727c.81-1.665 1.94-3.014 3.39-4.039 1.46-1.025 3.15-1.54 5.07-1.54 2.37 0 4.13.602 5.25 1.8s1.69 3.045 1.71 5.544v22.962h5.93v-22.933c-.06-8.275-3.75-12.408-11.1-12.408Zm-169.613.012c-3.056 0-5.769.733-8.155 2.209-2.375 1.474-4.233 3.567-5.579 6.284-1.329 2.717-1.996 5.775-1.996 9.169v.426c0 5.389 1.453 9.72 4.376 12.989 2.915 3.275 6.728 4.904 11.431 4.904 3.121 0 5.887-.747 8.292-2.245 2.399-1.498 4.252-3.592 5.544-6.266 1.292-2.684 1.942-5.717 1.942-9.092v-.426c-.003-5.431-1.462-9.779-4.382-13.048-2.927-3.275-6.748-4.904-11.473-4.904Zm185.883.634 12.39 34.31-1.32 3.53c-.73 2.162-1.65 3.647-2.78 4.46-1.12.813-2.69 1.22-4.69 1.22l-1.61-.136v4.815l2.21.421 1.12.094c4.71 0 8.14-2.891 10.29-8.665l13.97-40.049h-6.37l-8.08 26.007-8.65-26.007h-6.48Zm-185.758 4.223c2.984.03 5.377 1.229 7.166 3.607 1.789 2.38 2.666 5.472 2.63 9.287-.04 4.248-.959 7.549-2.754 9.896-1.795 2.344-4.194 3.513-7.208 3.483-2.996-.036-5.372-1.212-7.137-3.565-1.759-2.338-2.631-5.442-2.594-9.293.042-4.343.964-7.669 2.778-9.98 1.819-2.317 4.18-3.472 7.119-3.435Zm94.745.166c2.902 0 5.2 1.131 6.871 3.405 1.665 2.262 2.493 5.348 2.493 9.263 0 4.446-.843 7.801-2.517 10.063-1.683 2.256-3.94 3.382-6.781 3.382-3.654 0-6.379-1.581-8.15-4.744v-16.584c1.801-3.199 4.488-4.785 8.084-4.785Zm-542.39 13.468h4.649l-.006 7.125c-.746 1.534-1.951 2.791-3.619 3.749-1.668.958-3.433 1.445-5.289 1.445-1.95 0-3.539-.526-4.779-1.575-1.241-1.05-1.86-2.5-1.86-4.365 0-4.252 3.632-6.379 10.904-6.379Zm581.073 0h4.65l-.01 7.125c-.75 1.534-1.95 2.791-3.62 3.749-1.66.958-3.43 1.445-5.29 1.445-1.946 0-3.538-.526-4.775-1.575-1.244-1.05-1.86-2.5-1.86-4.365 0-4.252 3.635-6.379 10.905-6.379Z" fill="#292931"/><path d="M-.317 1.433h172.165L-.317 170.085V1.433Z" fill="#FF002E"/></g><defs><clipPath id="a"><path fill="#fff" d="M0 0h1247v322H0z"/></clipPath></defs></svg>