<svg width="80" height="19" xmlns="http://www.w3.org/2000/svg"><g fill="none" fill-rule="evenodd"><path d="M15.556 15.005c0 .97-.537 1.745-1.676 1.745-1.119 0-1.7-.775-1.7-1.745V6.869c0-.97.581-1.702 1.679-1.702 1.053 0 1.697.646 1.697 1.658v8.18zM23.83 3.03c1.29 0 2.336.484 2.852 1.07.667.756.941 1.469 1.115 2.966H25.71c-.263-1.268-.932-1.921-1.843-1.921-1.051 0-1.619.75-1.619 1.73 0 .617.205 1.152.965 1.842l2.534 2.17c1.318 1.238 2.049 2.332 2.049 4.327 0 2.102-1.49 3.786-3.866 3.786-1.935 0-3.797-.976-4.033-3.979h2.037c.146.822.724 1.798 1.741 1.798 1.068 0 1.767-.749 1.83-1.775.054-.913-.305-1.47-1.274-2.321l-2.534-2.17c-.86-.691-1.74-1.717-1.74-3.821 0-1.952 1.437-3.702 3.872-3.702zM13.878 3c2.149 0 3.849 1.197 3.849 3.827v8.111c0 2.695-1.7 4.02-3.868 4.02-2.29 0-3.85-1.281-3.85-3.956V6.96C10.01 4.369 11.671 3 13.878 3zm42.417.075c2.086 0 3.875 1.275 3.875 3.394v1.555h-2.173V6.686c0-.973-.77-1.557-1.702-1.557-1.094 0-1.674.757-1.674 1.794v8.152c0 1.102.66 1.773 1.674 1.773 1.617 0 1.95-.793 1.95-2.465v-1.307h-1.93v-2.064h3.855l-.007 7.72h-1.918v-1.03h-.248c-.42 1.03-.929 1.243-2.297 1.243-1.648 0-3.241-1.297-3.241-3.762V6.837c0-2.357 1.607-3.762 3.836-3.762zm-6.014.215v15.443h-2.27V3.29h2.27zM36.967 3.29v2.06h-2.773v13.384h-2.17V5.348H29.25V3.29h7.717zm4.351.001v13.363h4.342v2.08h-6.512V3.29h2.17zM4.524 3.29c2.379 0 3.435 1.732 3.435 4.592 0 .044 0 .09-.003.134v.62c-.036 2.919-1.138 4.76-3.554 4.76H2.17v5.338H0V3.289zm60.16-.001v6.695h3.377V3.288h2.171v15.444h-2.17v-6.69h-3.377v6.69h-2.17V3.288h2.17zM80 3.29v2.07h-2.773v13.372h-2.171V5.36h-2.774V3.29H80zM3.854 5.335H2.171v6h1.683c1.078 0 1.727-.73 1.746-2.7l-.002-.62c.005-.026.005-.052.005-.08 0-1.815-.61-2.6-1.749-2.6z" fill="#000"/><path fill="#63F" d="M0 2h8V0H0z"/></g></svg>